<svg xmlns="http://www.w3.org/2000/svg" width="900" height="280" viewBox="0 0 900 280">
  <defs>
    <style>
      @import url('https://fonts.googleapis.com/css2?family=Space+Mono:wght@400;700&amp;display=swap');
    </style>
  </defs>
  <rect width="900" height="280" fill="#1a1a1a"/>
  <!-- Grid lines -->
  <line x1="0" y1="40" x2="900" y2="40" stroke="#2a2a2a" stroke-width="0.5"/>
  <line x1="0" y1="80" x2="900" y2="80" stroke="#2a2a2a" stroke-width="0.5"/>
  <line x1="0" y1="120" x2="900" y2="120" stroke="#2a2a2a" stroke-width="0.5"/>
  <line x1="0" y1="160" x2="900" y2="160" stroke="#2a2a2a" stroke-width="0.5"/>
  <line x1="0" y1="200" x2="900" y2="200" stroke="#2a2a2a" stroke-width="0.5"/>
  <line x1="0" y1="240" x2="900" y2="240" stroke="#2a2a2a" stroke-width="0.5"/>
  <!-- Orange accent bar -->
  <rect x="0" y="0" width="900" height="4" fill="#FF6B00"/>
  <rect x="0" y="276" width="900" height="4" fill="#FF6B00"/>
  <!-- Corner marks -->
  <line x1="30" y1="30" x2="60" y2="30" stroke="#FF6B00" stroke-width="2"/>
  <line x1="30" y1="30" x2="30" y2="60" stroke="#FF6B00" stroke-width="2"/>
  <line x1="870" y1="30" x2="840" y2="30" stroke="#FF6B00" stroke-width="2"/>
  <line x1="870" y1="30" x2="870" y2="60" stroke="#FF6B00" stroke-width="2"/>
  <line x1="30" y1="250" x2="60" y2="250" stroke="#FF6B00" stroke-width="2"/>
  <line x1="30" y1="250" x2="30" y2="220" stroke="#FF6B00" stroke-width="2"/>
  <line x1="870" y1="250" x2="840" y2="250" stroke="#FF6B00" stroke-width="2"/>
  <line x1="870" y1="250" x2="870" y2="220" stroke="#FF6B00" stroke-width="2"/>
  <!-- Title -->
  <text x="450" y="110" font-family="'Space Mono', 'Courier New', monospace" font-size="64" font-weight="700" fill="#ffffff" text-anchor="middle" letter-spacing="-2">store.md</text>
  <!-- Subtitle -->
  <text x="450" y="155" font-family="'Space Mono', 'Courier New', monospace" font-size="16" fill="#FF6B00" text-anchor="middle" letter-spacing="4">KEY-VALUE STORAGE INTERFACE FOR GO</text>
  <!-- Description -->
  <text x="450" y="195" font-family="'Space Mono', 'Courier New', monospace" font-size="13" fill="#666666" text-anchor="middle" letter-spacing="1">ONE INTERFACE. SIX BACKENDS. BUILT-IN SYNC.</text>
  <!-- Version badge -->
  <rect x="390" y="215" width="120" height="24" rx="2" fill="none" stroke="#FF6B00" stroke-width="1"/>
  <text x="450" y="232" font-family="'Space Mono', 'Courier New', monospace" font-size="11" fill="#FF6B00" text-anchor="middle">v0.1.0</text>
</svg>
